HIERARCHY
ROOT Hips
{
	OFFSET 0.000000 0.000000 0.000000
	CHANNELS 6 Xposition Yposition Zposition Zrotation Yrotation Xrotation 
	JOINT LowerBack
	{
		OFFSET 0.000000 0.000000 0.000000
		CHANNELS 3 Zrotation Yrotation Xrotation
		JOINT Spine
		{
			OFFSET 0.028270 2.035590 -0.193380
			CHANNELS 3 Zrotation Yrotation Xrotation
			JOINT Spine1
			{
				OFFSET 0.056720 2.048850 -0.042750
				CHANNELS 3 Zrotation Yrotation Xrotation
				JOINT Neck
				{
					OFFSET 0.000000 0.000000 0.000000
					CHANNELS 3 Zrotation Yrotation Xrotation
					JOINT Neck1
					{
						OFFSET -0.054170 1.746240 0.172020
						CHANNELS 3 Zrotation Yrotation Xrotation
						JOINT Head
						{
							OFFSET 0.104070 1.761360 -0.123970
							CHANNELS 3 Zrotation Yrotation Xrotation
							End Site
							{
								OFFSET 0.000000 0.000000 0.000000
							}
						}
					}
				}
				JOINT LeftShoulder
				{
					OFFSET 0.000000 0.000000 0.000000
					CHANNELS 3 Zrotation Yrotation Xrotation
					JOINT LeftArm
					{
						OFFSET 3.362410 1.200890 -0.311210
						CHANNELS 3 Zrotation Yrotation Xrotation
						JOINT LeftForeArm
						{
							OFFSET 4.983000 -0.000000 -0.000000
							CHANNELS 3 Zrotation Yrotation Xrotation
							JOINT LeftHand
							{
								OFFSET 3.483560 -0.000000 -0.000000
								CHANNELS 3 Zrotation Yrotation Xrotation
								JOINT LeftFingerBase
								{
									OFFSET 0.000000 0.000000 0.000000
									CHANNELS 3 Zrotation Yrotation Xrotation
									JOINT LeftHandIndex1
									{
										OFFSET 0.715260 -0.000000 -0.000000
										CHANNELS 3 Zrotation Yrotation Xrotation
										End Site
										{
											OFFSET 0.000000 0.000000 0.000000
										}
									}
								}
								JOINT LThumb
								{
									OFFSET 0.000000 0.000000 0.000000
									CHANNELS 3 Zrotation Yrotation Xrotation
									End Site
									{
										OFFSET 0.000000 0.000000 0.000000
									}
								}
							}
						}
					}
				}
				JOINT RightShoulder
				{
					OFFSET 0.000000 0.000000 0.000000
					CHANNELS 3 Zrotation Yrotation Xrotation
					JOINT RightArm
					{
						OFFSET -3.136600 1.374050 -0.404650
						CHANNELS 3 Zrotation Yrotation Xrotation
						JOINT RightForeArm
						{
							OFFSET -5.241900 -0.000000 -0.000000
							CHANNELS 3 Zrotation Yrotation Xrotation
							JOINT RightHand
							{
								OFFSET -3.444170 -0.000000 -0.000000
								CHANNELS 3 Zrotation Yrotation Xrotation
								JOINT RightFingerBase
								{
									OFFSET 0.000000 0.000000 0.000000
									CHANNELS 3 Zrotation Yrotation Xrotation
									JOINT RightHandIndex1
									{
										OFFSET -0.622530 -0.000000 -0.000000
										CHANNELS 3 Zrotation Yrotation Xrotation
										End Site
										{
											OFFSET 0.000000 0.000000 0.000000
										}
									}
								}
								JOINT RThumb
								{
									OFFSET 0.000000 0.000000 0.000000
									CHANNELS 3 Zrotation Yrotation Xrotation
									End Site
									{
										OFFSET 0.000000 0.000000 0.000000
									}
								}
							}
						}
					}
				}
			}
		}
	}
}
}
MOTION
Frames: 15
Frame Time: 0.008333
-2.744522 17.017727 0.105401 34.801930 82.789178 44.923728 -5.432260 -1.440693 -1.946803 -2.018704 -1.202051 -3.389847 -7.627659 -1.336328 0.278736 12.379053 -3.527256 -5.568064 -4.652079 -0.376551 0.486226 0.000000 0.000000 0.000000 -4.882551 7.524465 1.877598 -67.842912 2.951363 5.243026 -3.642374 -13.343095 -0.003320 3.981110 3.840118 0.135925 -0.061399 -0.007828 -0.000000 0.000000 0.000000 0.000000 0.000000 0.000000 0.000000 22.633060 -0.437541 0.464360 71.103187 8.531112 0.984983 2.843397 24.191726 0.007240 -0.831175 7.191209 -0.056159 0.060309 -0.109852 -0.000000 0.000000 0.000000 0.000000 0.000000 0.000000 0.000000 
-2.603368 17.040222 0.117310 34.108572 82.331452 44.174511 -5.686352 -1.510264 -1.799311 -2.066657 -1.251562 -3.369999 -7.632219 -1.387023 0.242230 12.438299 -3.545577 -5.559677 -4.646631 -0.375791 0.485313 0.000000 0.000000 0.000000 -4.717587 7.221053 1.903993 -67.701967 2.682759 5.954458 -3.651234 -13.892860 -0.003537 3.852123 3.850761 0.132040 -0.063293 -0.006484 -0.000000 0.000000 0.000000 0.000000 0.000000 0.000000 0.000000 22.688225 -0.526490 0.494097 71.393888 8.293820 0.934340 2.833293 23.823983 0.007024 -0.773211 7.031546 -0.051275 0.059048 -0.107909 -0.000000 0.000000 0.000000 0.000000 0.000000 0.000000 0.000000 
-2.465110 17.062628 0.127003 32.668452 81.794950 42.716498 -5.865881 -1.559190 -1.681709 -2.099564 -1.286373 -3.356915 -7.638944 -1.423570 0.203395 12.476406 -3.543748 -5.550722 -4.643698 -0.375238 0.485131 0.000000 0.000000 0.000000 -4.617051 6.938597 1.928463 -67.513007 2.426495 6.711822 -3.654087 -14.538884 -0.003699 3.726250 3.844277 0.127656 -0.064971 -0.005367 -0.000000 0.000000 0.000000 0.000000 0.000000 0.000000 0.000000 22.728879 -0.581810 0.529529 71.645476 8.084688 0.997351 2.830134 23.469045 0.006896 -0.665184 6.867916 -0.043390 0.057756 -0.106030 -0.000000 0.000000 0.000000 0.000000 0.000000 0.000000 0.000000 
-2.329386 17.085070 0.135221 30.776141 81.176119 40.833048 -5.990013 -1.593325 -1.586465 -2.121599 -1.310647 -3.347552 -7.648865 -1.449746 0.168520 12.501891 -3.522080 -5.544944 -4.643992 -0.374874 0.484228 0.000000 0.000000 0.000000 -4.566710 6.711396 1.950520 -67.272605 2.138622 7.522399 -3.652491 -15.235230 -0.003806 3.618199 3.812901 0.122974 -0.066525 -0.004341 -0.000000 0.000000 0.000000 0.000000 0.000000 0.000000 0.000000 22.769160 -0.605638 0.565403 71.859109 7.901708 1.156773 2.832511 23.135619 0.006849 -0.504297 6.703278 -0.032703 0.056329 -0.104156 -0.000000 0.000000 0.000000 0.000000 0.000000 0.000000 0.000000 
-2.195687 17.107692 0.142049 28.580107 80.479415 38.667415 -6.054433 -1.615083 -1.512363 -2.132208 -1.326967 -3.341513 -7.662453 -1.467972 0.138680 12.515634 -3.474294 -5.539981 -4.647807 -0.374732 0.483223 0.000000 0.000000 0.000000 -4.562921 6.549171 1.970555 -66.981469 1.806471 8.371558 -3.647116 -15.954123 -0.003865 3.538426 3.753213 0.118491 -0.067998 -0.003327 -0.000000 0.000000 0.000000 0.000000 0.000000 0.000000 0.000000 22.809431 -0.593331 0.598795 72.037694 7.731074 1.375229 2.840072 22.832090 0.006880 -0.289503 6.541254 -0.019416 0.054714 -0.102266 -0.000000 0.000000 0.000000 0.000000 0.000000 0.000000 0.000000 
-2.063580 17.130704 0.147524 26.212775 79.715123 36.345501 -6.054787 -1.626152 -1.456205 -2.130818 -1.337237 -3.338770 -7.679622 -1.480061 0.111248 12.517917 -3.422497 -5.532897 -4.654998 -0.374874 0.483206 0.000000 0.000000 0.000000 -4.601131 6.405842 1.987511 -66.646935 1.478115 9.187665 -3.637648 -16.705018 -0.003868 3.492394 3.668699 0.114411 -0.069327 -0.002439 -0.000000 0.000000 0.000000 0.000000 0.000000 0.000000 0.000000 22.850642 -0.573242 0.631904 72.178598 7.587037 1.670958 2.852984 22.543022 0.006975 -0.043204 6.391922 -0.004828 0.053109 -0.100384 -0.000000 0.000000 0.000000 0.000000 0.000000 0.000000 0.000000 
-1.932649 17.154145 0.151917 23.822574 78.896283 34.008992 -5.997127 -1.630653 -1.412453 -2.118719 -1.345060 -3.337768 -7.699645 -1.489386 0.087503 12.511174 -3.381649 -5.524051 -4.664878 -0.375255 0.484116 0.000000 0.000000 0.000000 -4.669248 6.265912 2.000839 -66.278206 1.159680 9.938616 -3.624904 -17.469881 -0.003824 3.482678 3.562978 0.110830 -0.070537 -0.001658 -0.000000 0.000000 0.000000 0.000000 0.000000 0.000000 0.000000 22.894108 -0.565474 0.663740 72.284895 7.475434 2.042061 2.870100 22.264097 0.007115 0.215809 6.260880 0.009662 0.051620 -0.098513 -0.000000 0.000000 0.000000 0.000000 0.000000 0.000000 0.000000 
-1.802573 17.177968 0.155649 21.529118 78.038626 31.771733 -5.890909 -1.634022 -1.376024 -2.097624 -1.355132 -3.336634 -7.721532 -1.500426 0.070887 12.496772 -3.316011 -5.511360 -4.676489 -0.375746 0.486087 0.000000 0.000000 0.000000 -4.751851 6.186626 2.014116 -65.882263 0.770902 10.684843 -3.612458 -18.174746 -0.003773 3.509617 3.438389 0.107752 -0.071893 -0.000645 -0.000000 0.000000 0.000000 0.000000 0.000000 0.000000 0.000000 22.932151 -0.532078 0.686646 72.373595 7.343262 2.367463 2.888828 22.034918 0.007280 0.503917 6.138780 0.025351 0.049929 -0.096600 -0.000000 0.000000 0.000000 0.000000 0.000000 0.000000 0.000000 
-1.673105 17.202066 0.158812 19.379175 77.163090 29.676525 -5.738837 -1.638107 -1.343280 -2.067935 -1.369073 -3.335415 -7.743845 -1.514818 0.056998 12.474833 -3.274830 -5.494121 -4.688736 -0.376363 0.489835 0.000000 0.000000 0.000000 -4.840551 6.078888 2.024996 -65.474069 0.404001 11.327878 -3.599071 -18.861651 -0.003702 3.564480 3.306268 0.105272 -0.073222 0.000335 0.000000 0.000000 0.000000 0.000000 0.000000 0.000000 0.000000 22.965423 -0.532074 0.707151 72.438675 7.232234 2.724418 2.909141 21.820098 0.007448 0.775259 6.037255 0.039542 0.048473 -0.094713 -0.000000 0.000000 0.000000 0.000000 0.000000 0.000000 0.000000 
-1.544039 17.226190 0.161745 17.419733 76.287540 27.767519 -5.551555 -1.647165 -1.310590 -2.031407 -1.390327 -3.332711 -7.765353 -1.535894 0.048252 12.446549 -3.233793 -5.471681 -4.700470 -0.376972 0.495227 0.000000 0.000000 0.000000 -4.921861 5.982060 2.036435 -65.060774 0.000241 11.920478 -3.587869 -19.478706 -0.003649 3.639451 3.172564 0.103093 -0.074745 0.001530 0.000000 0.000000 0.000000 0.000000 0.000000 0.000000 0.000000 22.987055 -0.539375 0.720096 72.492795 7.103723 3.026788 2.928774 21.648549 0.007604 1.036436 5.948632 0.052732 0.047052 -0.092827 -0.000000 0.000000 0.000000 0.000000 0.000000 0.000000 0.000000 
-1.415308 17.250008 0.164678 15.661368 75.429885 26.053684 -5.336110 -1.663281 -1.276372 -1.989146 -1.420452 -3.328388 -7.784820 -1.565250 0.043106 12.412531 -3.207674 -5.444203 -4.710715 -0.377527 0.502364 0.000000 0.000000 0.000000 -4.987536 5.867322 2.048541 -64.650783 -0.415836 12.442734 -3.579263 -20.032566 -0.003624 3.722743 3.046332 0.101314 -0.076448 0.002898 0.000000 0.000000 0.000000 0.000000 0.000000 0.000000 0.000000 22.995068 -0.571896 0.727326 72.536908 6.964372 3.285910 2.946868 21.513513 0.007729 1.268089 5.874479 0.064222 0.045806 -0.090971 -0.000000 0.000000 0.000000 0.000000 0.000000 0.000000 0.000000 
-1.286833 17.273163 0.167822 14.099354 74.603327 24.530301 -5.099858 -1.688365 -1.238594 -1.942341 -1.460784 -3.321465 -7.801555 -1.604153 0.043757 12.374254 -3.188913 -5.413917 -4.718668 -0.377920 0.510476 0.000000 0.000000 0.000000 -5.031404 5.756470 2.062585 -64.246425 -0.877487 12.932785 -3.575179 -20.499962 -0.003646 3.804023 2.932989 0.099636 -0.078466 0.004553 0.000000 0.000000 0.000000 0.000000 0.000000 0.000000 0.000000 22.987149 -0.620759 0.726689 72.575302 6.800010 3.468820 2.962294 21.425914 0.007816 1.469163 5.810707 0.073912 0.044679 -0.089137 -0.000000 0.000000 0.000000 0.000000 0.000000 0.000000 0.000000 
-1.158583 17.295284 0.171475 12.721786 73.818578 23.187238 -4.850259 -1.722369 -1.200643 -1.892425 -1.510838 -3.314165 -7.815131 -1.652481 0.043031 12.332878 -3.205068 -5.377500 -4.724325 -0.378267 0.520856 0.000000 0.000000 0.000000 -5.048015 5.572698 2.077772 -63.853145 -1.292095 13.318414 -3.573355 -20.936468 -0.003701 3.869927 2.841281 0.098158 -0.080560 0.006244 0.000000 0.000000 0.000000 0.000000 0.000000 0.000000 0.000000 22.966762 -0.718163 0.725421 72.601653 6.633527 3.636962 2.975038 21.363213 0.007863 1.615602 5.762039 0.080804 0.043915 -0.087400 -0.000000 0.000000 0.000000 0.000000 0.000000 0.000000 0.000000 
-1.030523 17.315973 0.175807 11.509503 73.079244 22.007337 -4.592925 -1.766226 -1.162823 -1.840351 -1.571147 -3.305520 -7.825762 -1.710664 0.045557 12.290414 -3.235653 -5.339386 -4.727487 -0.378460 0.531978 0.000000 0.000000 0.000000 -5.037813 5.371000 2.095551 -63.464349 -1.724357 13.671683 -3.576113 -21.308655 -0.003810 3.914459 2.771481 0.096779 -0.082928 0.008142 0.000000 0.000000 0.000000 0.000000 0.000000 0.000000 0.000000 22.933892 -0.838703 0.719383 72.620005 6.443760 3.742067 2.984454 21.341893 0.007867 1.722023 5.721121 0.085695 0.043335 -0.085717 -0.000000 0.000000 0.000000 0.000000 0.000000 0.000000 0.000000 
-0.902635 17.334930 0.181109 10.444186 72.386076 20.974805 -4.333674 -1.818826 -1.128864 -1.787388 -1.640314 -3.297489 -7.834054 -1.777616 0.046437 12.248582 -3.285467 -5.296754 -4.728824 -0.378613 0.544736 0.000000 0.000000 0.000000 -5.000359 5.117606 2.116086 -63.076791 -2.126348 13.965648 -3.582029 -21.651069 -0.003959 3.931055 2.726443 0.095700 -0.085434 0.010101 0.000000 0.000000 0.000000 0.000000 0.000000 0.000000 0.000000 22.893066 -0.987412 0.712700 72.626797 6.234639 3.803349 2.990842 21.352690 0.007837 1.787063 5.687416 0.088387 0.042970 -0.084119 -0.000000 0.000000 0.000000 0.000000 0.000000 0.000000 0.000000 
